<svg xmlns="http://www.w3.org/2000/svg" viewBox="0 0 260 260" fill="none">
  <g stroke="#7B6048" stroke-linecap="round" stroke-linejoin="round">
    <path d="M68 172h124c12 0 22-10 22-22v-24c0-35-28-63-62-63h-44c-34 0-62 28-62 63v24c0 12 10 22 22 22z" stroke-width="6" opacity=".55"/>
    <path d="M214 126h14c12 0 22 10 22 22s-10 22-22 22h-14" stroke-width="5" opacity=".45"/>
    <path d="M114 58c0-12 6-21 16-28m18 34c0-10 5-18 12-24" stroke-width="4" opacity=".35"/>
  </g>
  <g fill="#7B6048" opacity=".28">
    <path d="M52 214c22-8 42-20 58-36-2 20-18 36-38 40-7 1-14 0-20-4z"/>
    <path d="M208 214c-22-8-42-20-58-36 2 20 18 36 38 40 7 1 14 0 20-4z"/>
  </g>
</svg>
