<svg xmlns="http://www.w3.org/2000/svg" viewBox="0 0 260 260" fill="none">
  <g stroke="#7B6048" stroke-linecap="round" stroke-linejoin="round">
    <path d="M70 182h118c14 0 26-12 26-26v-32H44v32c0 14 12 26 26 26z" stroke-width="6" opacity=".6"/>
    <path d="M214 132h16c13 0 24 11 24 24v3c0 13-11 24-24 24h-16" stroke-width="6" opacity=".55"/>
    <path d="M92 96c0-16 9-27 18-35m28 35c0-16-9-27-18-35m-6-20c0-10 4-18 9-24" stroke-width="4" opacity=".45"/>
  </g>
  <g fill="#7B6048" opacity=".35">
    <ellipse cx="72" cy="212" rx="10" ry="6"/>
    <ellipse cx="95" cy="220" rx="8" ry="5"/>
    <ellipse cx="128" cy="224" rx="10" ry="6"/>
    <ellipse cx="160" cy="220" rx="8" ry="5"/>
    <ellipse cx="186" cy="212" rx="10" ry="6"/>
  </g>
</svg>
